<svg width="32" height="32" viewBox="0 0 32 32" fill="none" xmlns="http://www.w3.org/2000/svg">
<path d="M16 0C7.17769 0 0 7.17769 0 16C0 24.8223 7.17769 32 16 32C24.8223 32 32 24.8223 32 16C32 7.17769 24.8223 0 16 0ZM22.1538 17.2308H9.84615C9.51973 17.2308 9.20668 17.1011 8.97587 16.8703C8.74506 16.6395 8.61539 16.3264 8.61539 16C8.61539 15.6736 8.74506 15.3605 8.97587 15.1297C9.20668 14.8989 9.51973 14.7692 9.84615 14.7692H22.1538C22.4803 14.7692 22.7933 14.8989 23.0241 15.1297C23.2549 15.3605 23.3846 15.6736 23.3846 16C23.3846 16.3264 23.2549 16.6395 23.0241 16.8703C22.7933 17.1011 22.4803 17.2308 22.1538 17.2308Z" fill="#A80000"/>
</svg>
